<svg width="126" height="49" viewBox="0 0 126 49" fill="none" xmlns="http://www.w3.org/2000/svg">
<g id="Layer 1">
<g id="Group">
<path id="Vector" d="M117.168 28.4674C122.374 26.1619 126 21.09 126 15.218C126 7.182 119.215 0.644775 110.874 0.644775C106.928 0.644775 103.317 2.10877 100.613 4.51448C99.0991 2.19293 96.4178 0.644775 93.3676 0.644775C90.3175 0.644775 87.6389 2.19159 86.1236 4.51181C83.4256 2.11278 79.8236 0.644775 75.8723 0.644775C70.4125 0.644775 65.5947 3.44721 62.9328 7.66822C60.25 3.58079 55.5181 0.862505 50.1402 0.862505C45.2378 0.862505 40.8511 3.12128 38.081 6.63968C36.7819 5.13027 34.8229 4.16852 32.6338 4.16852C30.4446 4.16852 28.4883 5.13027 27.1892 6.63835C24.4233 3.13063 20.0505 0.862505 15.1384 0.862505C7.29816 0.862505 0.779173 6.63835 0.0748671 14.1026C0.0263421 14.3497 0 14.6022 0 14.8573V42.907C0 45.9018 2.52885 48.3382 5.63722 48.3382C8.74559 48.3382 11.2744 45.9018 11.2744 42.907V40.3277C12.6123 44.4311 16.5955 47.4166 21.29 47.4166H23.1256C24.9349 47.4166 26.5459 46.591 27.5774 45.3114C28.4994 47.104 30.4182 48.3396 32.631 48.3396C34.1949 48.3396 35.6118 47.7224 36.6336 46.7286C37.6554 47.7224 39.0723 48.3396 40.6362 48.3396C43.3966 48.3396 45.6981 46.4187 46.1792 43.8915C47.9898 45.7509 50.5617 46.9156 53.4108 46.9156C56.2599 46.9156 59.0092 45.6694 60.8282 43.6951C61.319 46.2117 63.6149 48.1218 66.3669 48.1218C69.4753 48.1218 72.0042 45.6854 72.0042 42.6906V41.4711C73.3421 45.5745 77.3253 48.5586 82.0197 48.5586H83.8554C85.5135 48.5586 87.0081 47.864 88.0396 46.762C89.5009 47.8854 91.3504 48.5586 93.3607 48.5586C95.1326 48.5586 96.7796 48.0363 98.1467 47.1441C99.0603 47.7585 100.171 48.1218 101.367 48.1218C103.996 48.1218 106.21 46.3787 106.831 44.0304C108.646 45.9365 111.251 47.1347 114.142 47.1347C119.613 47.1347 124.065 42.8469 124.065 37.5746C124.065 33.3176 121.161 29.7043 117.163 28.4701L117.168 28.4674Z" fill="white"/>
<g id="Group_2">
<path id="Vector_2" d="M23.1271 43.4064H21.2914C17.7976 43.4064 14.9554 40.6681 14.9554 37.302V29.6748C14.9554 28.888 15.6168 28.2509 16.4334 28.2509C17.25 28.2509 17.9113 28.888 17.9113 29.6748V37.302C17.9113 39.0973 19.4281 40.5586 21.2914 40.5586H23.1271C23.9437 40.5586 24.605 41.1957 24.605 41.9825C24.605 42.7693 23.9437 43.4064 23.1271 43.4064Z" fill="#FFC522"/>
<path id="Vector_3" d="M32.6325 44.3295C31.8159 44.3295 31.1545 43.6923 31.1545 42.9056V18.7055C31.1545 17.9188 31.8159 17.2816 32.6325 17.2816C33.4491 17.2816 34.1104 17.9188 34.1104 18.7055V42.9056C34.1104 43.6923 33.4491 44.3295 32.6325 44.3295Z" fill="#FFC522"/>
<path id="Vector_4" d="M32.6324 13.7912C34.2419 13.7912 35.5467 12.5341 35.5467 10.9834C35.5467 9.43274 34.2419 8.17566 32.6324 8.17566C31.0229 8.17566 29.7181 9.43274 29.7181 10.9834C29.7181 12.5341 31.0229 13.7912 32.6324 13.7912Z" fill="#FFC522"/>
<path id="Vector_5" d="M53.4137 31.8013C50.2304 31.8013 47.6503 34.2871 47.6503 37.354C47.6503 40.421 50.2304 42.9068 53.4137 42.9068C56.5969 42.9068 59.177 40.421 59.177 37.354C59.177 34.2871 56.5969 31.8013 53.4137 31.8013ZM51.4477 34.9497C51.9524 34.9497 52.3614 35.3437 52.3614 35.8299C52.3614 36.3162 51.9524 36.7102 51.4477 36.7102C50.943 36.7102 50.534 36.3162 50.534 35.8299C50.534 35.3437 50.943 34.9497 51.4477 34.9497ZM53.4137 40.9579C51.8872 40.9579 50.6505 39.7664 50.6505 38.2958H56.1768C56.1768 39.7664 54.9401 40.9579 53.4137 40.9579ZM55.3796 36.7102C54.8749 36.7102 54.466 36.3162 54.466 35.8299C54.466 35.3437 54.8749 34.9497 55.3796 34.9497C55.8843 34.9497 56.2933 35.3437 56.2933 35.8299C56.2933 36.3162 55.8843 36.7102 55.3796 36.7102Z" fill="#FFC522"/>
<path id="Vector_6" d="M5.63723 44.3294C4.82063 44.3294 4.1593 43.6923 4.1593 42.9055V14.8558L4.18842 14.8277C4.51561 9.28299 9.30157 4.86829 15.137 4.86829C20.9725 4.86829 26.1037 9.60891 26.1037 15.4342C26.1037 21.2594 21.1833 26.0001 15.137 26.0001C13.5829 26.0001 12.0814 25.6928 10.6714 25.0864C9.92546 24.7658 9.59133 23.923 9.92407 23.2057C10.2568 22.487 11.1317 22.1651 11.8762 22.4857C12.9035 22.9278 14.0016 23.1509 15.137 23.1509C19.5542 23.1509 23.1478 19.6886 23.1478 15.4328C23.1478 11.1771 19.5542 7.7148 15.137 7.7148C10.7199 7.7148 7.12626 11.1771 7.12626 15.4328V16.0233L7.11517 16.0339V42.9028C7.11517 43.6896 6.45384 44.3268 5.63723 44.3268V44.3294Z" fill="#FFC522"/>
<path id="Vector_7" d="M40.6391 44.3294C39.8225 44.3294 39.1611 43.6923 39.1611 42.9055V14.8558L39.1903 14.8277C39.5174 9.28299 44.3034 4.86829 50.1389 4.86829C55.9744 4.86829 61.1055 9.60891 61.1055 15.4342C61.1055 21.2594 56.1851 26.0001 50.1389 26.0001C48.5847 26.0001 47.0832 25.6928 45.6732 25.0864C44.9273 24.7658 44.5932 23.923 44.9259 23.2057C45.2586 22.487 46.1335 22.1651 46.878 22.4857C47.9053 22.9278 49.0034 23.1509 50.1389 23.1509C54.556 23.1509 58.1497 19.6886 58.1497 15.4328C58.1497 11.1771 54.556 7.7148 50.1389 7.7148C45.7217 7.7148 42.1281 11.1771 42.1281 15.4328V16.0233L42.117 16.0339V42.9028C42.117 43.6896 41.4557 44.3268 40.6391 44.3268V44.3294Z" fill="#FFC522"/>
</g>
<path id="Vector_8" d="M83.8609 44.5484H82.0253C78.5315 44.5484 75.6893 41.8101 75.6893 38.444V30.8167C75.6893 30.03 76.3507 29.3928 77.1673 29.3928C77.9839 29.3928 78.6452 30.03 78.6452 30.8167V38.444C78.6452 40.2392 80.162 41.7006 82.0253 41.7006H83.8609C84.6775 41.7006 85.3389 42.3377 85.3389 43.1245C85.3389 43.9112 84.6775 44.5484 83.8609 44.5484Z" fill="#FFC522"/>
<path id="Vector_9" d="M114.147 32.019C110.964 32.019 108.384 34.5049 108.384 37.5718C108.384 40.6387 110.964 43.1246 114.147 43.1246C117.331 43.1246 119.911 40.6387 119.911 37.5718C119.911 34.5049 117.331 32.019 114.147 32.019ZM111.268 36.0464C111.268 35.5602 111.677 35.1661 112.181 35.1661C112.686 35.1661 113.095 35.5602 113.095 36.0464C113.095 36.5326 112.686 36.9266 112.181 36.9266C111.677 36.9266 111.268 36.5326 111.268 36.0464ZM114.147 41.3761C113.206 41.3761 112.443 40.6414 112.443 39.7344C112.443 38.8274 113.206 38.0928 114.147 38.0928C115.089 38.0928 115.851 38.8274 115.851 39.7344C115.851 40.6414 115.089 41.3761 114.147 41.3761ZM116.113 36.9253C115.609 36.9253 115.2 36.5313 115.2 36.045C115.2 35.5588 115.609 35.1648 116.113 35.1648C116.618 35.1648 117.027 35.5588 117.027 36.045C117.027 36.5313 116.618 36.9253 116.113 36.9253Z" fill="#FFC522"/>
<path id="Vector_10" d="M93.3662 44.5485C90.9441 44.5485 88.9726 42.6503 88.9726 40.3154V8.88355C88.9726 6.54997 90.9441 4.65051 93.3662 4.65051C95.7883 4.65051 97.7598 6.54997 97.7598 8.88355V40.3167C97.7598 42.6503 95.7883 44.5498 93.3662 44.5498V44.5485ZM93.3662 7.4997C92.5745 7.4997 91.9298 8.12083 91.9298 8.88355V40.3167C91.9298 41.0795 92.5745 41.7006 93.3662 41.7006C94.1578 41.7006 94.8025 41.0795 94.8025 40.3167V8.88355C94.8025 8.12083 94.1578 7.4997 93.3662 7.4997Z" fill="#FFC522"/>
<path id="Vector_11" d="M66.3711 44.1117C65.5545 44.1117 64.8932 43.4745 64.8932 42.6877V14.638L64.9223 14.61C65.2495 9.06521 70.0355 4.65051 75.8709 4.65051C81.7064 4.65051 86.8376 9.39114 86.8376 15.2164C86.8376 21.0417 81.9171 25.7823 75.8709 25.7823C74.3167 25.7823 72.8152 25.4751 71.4052 24.8686C70.6593 24.5481 70.3252 23.7052 70.658 22.9879C70.9907 22.2692 71.8655 21.9473 72.61 22.2679C73.6374 22.71 74.7354 22.9331 75.8709 22.9331C80.2881 22.9331 83.8817 19.4708 83.8817 15.2151C83.8817 10.9593 80.2881 7.49703 75.8709 7.49703C71.4538 7.49703 67.8601 10.9593 67.8601 15.2151V15.8055L67.8491 15.8162V42.6851C67.8491 43.4718 67.1877 44.109 66.3711 44.109V44.1117Z" fill="#FFC522"/>
<path id="Vector_12" d="M101.373 44.1117C100.556 44.1117 99.8949 43.4745 99.8949 42.6877V14.638L99.924 14.61C100.251 9.06521 105.037 4.65051 110.873 4.65051C116.708 4.65051 121.839 9.39114 121.839 15.2164C121.839 21.0417 116.919 25.7823 110.873 25.7823C109.318 25.7823 107.817 25.4751 106.407 24.8686C105.661 24.5481 105.327 23.7052 105.66 22.9879C105.992 22.2692 106.867 21.9473 107.612 22.2679C108.639 22.71 109.737 22.9331 110.873 22.9331C115.29 22.9331 118.883 19.4708 118.883 15.2151C118.883 10.9593 115.29 7.49703 110.873 7.49703C106.455 7.49703 102.862 10.9593 102.862 15.2151V15.8055L102.851 15.8162V42.6851C102.851 43.4718 102.189 44.109 101.373 44.109V44.1117Z" fill="#FFC522"/>
</g>
</g>
</svg>
