<svg width="141" height="194" viewBox="0 0 141 194" fill="none" xmlns="http://www.w3.org/2000/svg">
<path d="M140.715 121.17C140.715 110.763 135.459 101.52 127.377 95.7811C132.92 92.041 136.556 85.8391 136.556 78.8289C136.556 70.0697 130.881 62.5708 122.896 59.5641C133.463 54.3449 140.714 43.725 140.714 31.5001C140.715 14.1308 126.077 0 108.085 0C97.5228 0 88.0723 4.86995 82.0941 12.4573C79.2893 9.20985 75.07 7.13868 70.3585 7.13868C65.647 7.13868 61.431 9.20791 58.6268 12.4528C52.6607 4.89061 43.239 0 32.6556 0C15.7443 0 1.68197 12.4838 0.161175 28.6173C0.0555083 29.1519 0.000668775 29.6988 0.000668775 30.2508V90.8188C0.000668775 95.5745 2.94127 99.6768 7.1579 101.528C3.28904 106.2 0.757053 111.96 0.160506 118.286C0.0548396 118.821 0 119.368 0 119.92V180.488C0 186.972 5.46456 192.248 12.1817 192.248C18.8989 192.248 24.3635 186.972 24.3635 180.488V178.044C27.3074 186.823 35.8544 193.191 45.9161 193.191H49.8712C53.4445 193.191 56.6633 191.698 58.8937 189.324C62.0456 191.742 66.0282 193.191 70.3571 193.191C74.1738 193.191 77.7237 192.067 80.671 190.144C82.6419 191.469 85.0334 192.248 87.6115 192.248C93.2714 192.248 98.0418 188.502 99.4034 183.444C103.319 187.543 108.924 190.116 115.141 190.116C126.95 190.116 136.557 180.842 136.557 169.442C136.557 160.265 130.328 152.469 121.738 149.777C132.93 144.778 140.715 133.836 140.715 121.17V121.17Z" fill="white"/>
<path d="M49.8723 184.507H45.9172C38.3875 184.507 32.2615 178.593 32.2615 171.325V154.854C32.2615 153.155 33.688 151.778 35.4475 151.778C37.2071 151.778 38.6336 153.155 38.6336 154.854V171.325C38.6336 175.201 41.9005 178.355 45.9172 178.355H49.8723C51.6319 178.355 53.0584 179.732 53.0584 181.431C53.0584 183.13 51.6319 184.507 49.8723 184.507Z" fill="#FFC522"/>
<path d="M49.8723 91.9008H45.9172C38.3875 91.9008 32.2615 85.9869 32.2615 78.7184V62.2479C32.2615 60.5492 33.688 59.1721 35.4475 59.1721C37.2071 59.1721 38.6336 60.5492 38.6336 62.2479V78.7184C38.6336 82.5954 41.9005 85.7493 45.9172 85.7493H49.8723C51.6319 85.7493 53.0584 87.1264 53.0584 88.825C53.0584 90.5237 51.6319 91.9008 49.8723 91.9008Z" fill="#FFC522"/>
<path d="M70.3585 93.8939C68.5989 93.8939 67.1724 92.5168 67.1724 90.8181V38.5618C67.1724 36.8632 68.5989 35.4861 70.3585 35.4861C72.118 35.4861 73.5445 36.8632 73.5445 38.5618V90.8181C73.5445 92.5168 72.118 93.8939 70.3585 93.8939Z" fill="#FFC522"/>
<path d="M70.3583 27.9515C73.8276 27.9515 76.6401 25.2364 76.6401 21.8871C76.6401 18.5379 73.8276 15.8228 70.3583 15.8228C66.8889 15.8228 64.0765 18.5379 64.0765 21.8871C64.0765 25.2364 66.8889 27.9515 70.3583 27.9515Z" fill="#FFC522"/>
<path d="M115.142 66.8397C108.283 66.8397 102.723 72.2074 102.723 78.829C102.723 85.4505 108.283 90.8182 115.142 90.8182C122.001 90.8182 127.562 85.4505 127.562 78.829C127.562 72.2074 122.001 66.8397 115.142 66.8397ZM110.904 73.6369C111.991 73.6369 112.872 74.4872 112.872 75.5363C112.872 76.5854 111.991 77.4357 110.904 77.4357C109.818 77.4357 108.937 76.5854 108.937 75.5363C108.937 74.4872 109.818 73.6369 110.904 73.6369ZM115.142 86.6101C111.854 86.6101 109.188 84.0366 109.188 80.8614H121.097C121.097 84.0359 118.431 86.6101 115.142 86.6101ZM119.38 77.4364C118.294 77.4364 117.413 76.5861 117.413 75.5369C117.413 74.4878 118.294 73.6375 119.38 73.6375C120.467 73.6375 121.348 74.4878 121.348 75.5369C121.348 76.5861 120.467 77.4364 119.38 77.4364Z" fill="#FFC522"/>
<path d="M115.142 157.452C108.283 157.452 102.723 162.82 102.723 169.442C102.723 176.063 108.283 181.431 115.142 181.431C122.001 181.431 127.562 176.063 127.562 169.442C127.562 162.82 122.001 157.452 115.142 157.452ZM108.937 166.149C108.937 165.1 109.818 164.249 110.904 164.249C111.991 164.249 112.872 165.1 112.872 166.149C112.872 167.198 111.991 168.048 110.904 168.048C109.818 168.048 108.937 167.198 108.937 166.149ZM115.142 177.658C113.114 177.658 111.469 176.071 111.469 174.112C111.469 172.153 113.113 170.566 115.142 170.566C117.171 170.566 118.816 172.153 118.816 174.112C118.816 176.071 117.171 177.658 115.142 177.658ZM119.38 168.049C118.294 168.049 117.413 167.199 117.413 166.149C117.413 165.1 118.294 164.25 119.38 164.25C120.467 164.25 121.348 165.1 121.348 166.149C121.348 167.199 120.467 168.049 119.38 168.049Z" fill="#FFC522"/>
<path d="M70.3585 184.507C65.1381 184.507 60.8907 180.407 60.8907 175.367V107.494C60.8907 102.454 65.1381 98.3539 70.3585 98.3539C75.579 98.3539 79.8257 102.454 79.8257 107.494V175.367C79.8257 180.407 75.5783 184.507 70.3585 184.507ZM70.3585 104.505C68.6518 104.505 67.2628 105.846 67.2628 107.493V175.367C67.2628 177.014 68.6518 178.355 70.3585 178.355C72.0652 178.355 73.4536 177.014 73.4536 175.367V107.493C73.4536 105.846 72.0652 104.505 70.3585 104.505Z" fill="#FFC522"/>
<path d="M12.183 93.8939C10.4234 93.8939 8.99695 92.5167 8.99695 90.8181V30.2507L9.06048 30.1893C9.76671 18.2162 20.0799 8.6842 32.6562 8.6842C45.2325 8.6842 56.2907 18.9193 56.2907 31.5006C56.2907 44.0819 45.6886 54.3164 32.6562 54.3164C29.307 54.3164 26.0694 53.6533 23.0325 52.3446C21.4255 51.6525 20.7045 49.8338 21.4215 48.2823C22.1384 46.7309 24.023 46.0343 25.6294 46.727C27.8437 47.6813 30.2085 48.1648 32.6562 48.1648C42.1749 48.1648 49.9186 40.6891 49.9186 31.5C49.9186 22.3108 42.1749 14.8351 32.6562 14.8351C23.1375 14.8351 15.3938 22.3108 15.3938 31.5V32.7738L15.369 32.7977V90.8174C15.369 92.5161 13.9425 93.8932 12.183 93.8932V93.8939Z" fill="#FFC522"/>
<path d="M87.6127 93.8939C85.8531 93.8939 84.4266 92.5167 84.4266 90.8181V30.2507L84.4902 30.1893C85.1964 18.2162 95.5096 8.6842 108.086 8.6842C120.662 8.6842 131.72 18.9193 131.72 31.5006C131.72 44.0819 121.118 54.3164 108.086 54.3164C104.737 54.3164 101.499 53.6533 98.4622 52.3446C96.8552 51.6525 96.1342 49.8338 96.8511 48.2823C97.5687 46.7309 99.452 46.0343 101.059 46.727C103.273 47.6813 105.638 48.1648 108.086 48.1648C117.605 48.1648 125.348 40.6891 125.348 31.5C125.348 22.3108 117.605 14.8351 108.086 14.8351C98.5672 14.8351 90.8235 22.3108 90.8235 31.5V32.7738L90.7987 32.7977V90.8174C90.7987 92.5161 89.3722 93.8932 87.6127 93.8932V93.8939Z" fill="#FFC522"/>
<path d="M12.183 183.563C10.4234 183.563 8.99695 182.186 8.99695 180.487V119.919L9.06048 119.858C9.76671 107.884 20.0799 98.3524 32.6562 98.3524C45.2325 98.3524 56.2907 108.588 56.2907 121.169C56.2907 133.75 45.6886 143.985 32.6562 143.985C29.307 143.985 26.0694 143.322 23.0325 142.013C21.4255 141.321 20.7045 139.502 21.4215 137.951C22.1384 136.399 24.023 135.704 25.6294 136.395C27.8437 137.349 30.2085 137.833 32.6562 137.833C42.1749 137.833 49.9186 130.357 49.9186 121.168C49.9186 111.979 42.1749 104.503 32.6562 104.503C23.1375 104.503 15.3938 111.979 15.3938 121.168V122.442L15.369 122.466V180.486C15.369 182.184 13.9425 183.561 12.183 183.561V183.563Z" fill="#FFC522"/>
<path d="M87.6127 183.563C85.8531 183.563 84.4266 182.186 84.4266 180.487V119.919L84.4902 119.858C85.1964 107.884 95.5096 98.3524 108.086 98.3524C120.662 98.3524 131.72 108.588 131.72 121.169C131.72 133.75 121.118 143.985 108.086 143.985C104.737 143.985 101.499 143.322 98.4622 142.013C96.8552 141.321 96.1342 139.502 96.8511 137.951C97.5687 136.399 99.452 135.704 101.059 136.395C103.273 137.349 105.638 137.833 108.086 137.833C117.605 137.833 125.348 130.357 125.348 121.168C125.348 111.979 117.605 104.503 108.086 104.503C98.5672 104.503 90.8235 111.979 90.8235 121.168V122.442L90.7987 122.466V180.486C90.7987 182.184 89.3722 183.561 87.6127 183.561V183.563Z" fill="#FFC522"/>
</svg>
